<?xml version="1.0" standalone="no"?>
<!DOCTYPE svg PUBLIC "-//W3C//DTD SVG 20010904//EN"
 "http://www.w3.org/TR/2001/REC-SVG-20010904/DTD/svg10.dtd">
<svg version="1.0" xmlns="http://www.w3.org/2000/svg"
 width="2944.000000pt" height="2944.000000pt" viewBox="0 0 2944.000000 2944.000000"
 preserveAspectRatio="xMidYMid meet">
<metadata>
Created by potrace 1.14, written by Peter Selinger 2001-2017
</metadata>
<g transform="translate(0.000000,2944.000000) scale(0.100000,-0.100000)"
fill="#000000" stroke="none">
<path d="M3 16508 c3 -1481 7 -2751 10 -2823 3 -71 9 -202 12 -290 9 -247 22
-510 30 -610 3 -38 8 -108 11 -155 10 -157 17 -250 29 -370 3 -30 8 -89 11
-130 3 -41 8 -91 9 -110 8 -72 22 -198 30 -255 3 -22 8 -60 10 -85 9 -72 40
-301 49 -350 3 -14 7 -43 11 -65 3 -22 7 -47 10 -55 6 -21 17 -92 18 -112 1
-10 5 -18 10 -18 4 0 5 -4 2 -10 -3 -5 -1 -27 4 -47 6 -21 12 -49 15 -63 14
-68 18 -86 31 -133 7 -29 25 -90 39 -137 15 -47 28 -92 31 -100 2 -8 4 -16 5
-17 2 -2 4 -6 5 -10 1 -5 8 -22 14 -40 7 -18 12 -35 11 -39 -1 -4 2 -10 7 -13
4 -3 21 -33 38 -66 39 -80 111 -151 160 -161 71 -13 177 23 249 86 42 37 49
43 76 79 14 18 30 38 35 45 32 38 113 203 145 296 12 36 25 72 28 80 4 13 9
32 16 65 1 6 4 15 7 20 4 6 10 28 14 50 5 22 9 42 10 45 3 15 19 86 21 95 1 6
3 12 4 15 1 3 3 21 5 40 2 19 4 35 5 35 2 0 5 21 14 95 4 30 9 66 11 80 6 39
15 164 20 278 2 56 6 106 9 110 3 5 1 14 -4 22 -4 7 -4 24 0 36 6 14 5 26 -1
29 -6 4 -6 13 0 23 5 9 5 26 0 39 -5 13 -5 23 -1 23 4 0 7 14 7 30 0 17 -4 30
-8 30 -5 0 -5 5 -1 11 11 19 11 109 0 109 -7 0 -8 3 -1 8 6 4 12 41 13 82 5
110 7 124 15 138 5 7 3 12 -3 12 -6 0 -9 3 -7 8 3 4 8 30 11 57 6 52 16 116
22 150 4 21 13 66 27 130 2 6 6 16 10 23 5 6 6 12 3 12 -9 0 31 98 76 188 22
45 45 82 49 82 5 0 9 6 9 13 0 17 126 137 175 167 22 13 42 26 45 30 9 10 125
63 138 63 6 0 12 5 12 10 0 6 3 8 6 5 3 -4 21 0 40 8 19 8 34 11 34 8 0 -4 6
-2 13 3 6 6 26 14 42 18 17 4 39 9 50 12 11 3 29 6 40 8 11 2 21 4 23 5 3 3
11 5 65 14 27 4 58 9 70 12 44 8 175 25 242 30 39 3 93 7 120 10 90 7 277 15
453 18 95 2 175 6 178 9 3 3 18 2 34 -3 16 -5 32 -4 38 2 6 6 12 6 16 -1 5 -7
15 -7 31 -1 14 5 25 6 25 2 0 -9 64 -6 87 2 7 3 13 1 13 -4 0 -6 9 -6 23 -1
12 5 31 5 42 1 11 -4 24 -5 28 -3 5 3 79 7 165 8 86 2 182 6 212 9 30 2 93 8
140 11 47 4 96 9 110 10 14 2 54 6 90 9 36 4 79 9 95 12 31 6 54 9 140 20 28
3 53 8 56 9 3 2 28 7 55 11 27 3 58 10 69 14 11 4 30 6 43 5 12 -1 22 1 22 5
0 4 6 7 13 7 10 0 106 20 145 30 6 2 20 5 30 7 9 3 17 5 17 6 0 1 7 3 15 5 35
7 110 29 180 52 41 14 80 26 85 28 6 1 21 7 35 12 140 58 180 77 180 84 0 5 3
8 8 8 17 -3 31 2 44 14 7 6 25 18 40 26 15 8 46 31 70 52 24 21 46 39 51 39 4
0 7 7 7 15 0 8 4 15 9 15 5 0 18 19 29 43 19 39 23 94 10 147 -7 29 -51 92
-92 132 -35 34 -195 138 -213 138 -3 0 -24 9 -47 19 -35 16 -61 27 -86 36 -3
1 -12 4 -20 8 -37 14 -137 47 -155 50 -11 2 -27 7 -35 10 -20 7 -71 20 -90 23
-8 1 -33 6 -55 12 -22 6 -51 13 -65 16 -89 18 -111 22 -195 36 -33 5 -73 12
-90 15 -72 12 -93 15 -150 20 -33 4 -71 8 -85 11 -14 2 -59 7 -100 9 -41 3
-93 7 -115 10 -22 2 -92 7 -155 11 -63 3 -144 7 -180 10 -75 5 -73 5 -142 4
-29 -1 -132 0 -228 0 -96 1 -179 1 -185 0 -5 -2 -14 -1 -20 0 -5 1 -89 4 -185
6 -236 5 -615 26 -615 34 0 1 -19 3 -43 5 -133 12 -297 43 -427 81 -93 27
-265 101 -265 114 0 4 -10 11 -22 14 -13 3 -42 23 -65 43 -23 21 -50 45 -60
54 -62 55 -150 206 -187 321 -24 73 -49 187 -60 268 -21 154 -28 246 -30 375
-1 61 -6 116 -10 123 -4 7 -3 12 1 12 10 0 10 41 0 56 -3 5 -2 16 3 24 5 8 5
21 0 31 -5 9 -6 19 -3 23 8 8 8 109 0 122 -3 6 -2 16 3 24 4 7 4 23 0 36 -5
12 -6 25 -3 28 3 3 7 47 9 97 4 113 12 241 20 294 2 22 7 54 9 70 2 17 4 30 5
30 1 0 3 15 6 34 5 37 8 52 24 121 25 105 120 320 141 320 5 0 9 6 9 13 0 17
126 137 175 167 22 13 42 26 45 30 9 10 125 63 138 63 6 0 12 5 12 10 0 6 3 8
6 5 3 -4 20 0 38 7 32 13 164 49 221 59 100 19 207 36 255 41 30 3 73 7 95 10
110 13 331 24 583 29 95 2 175 6 178 9 3 3 16 2 28 -3 13 -4 29 -4 39 1 11 7
17 6 17 0 0 -6 11 -6 30 -1 17 5 30 5 30 2 0 -9 76 -6 90 3 6 3 10 2 10 -4 0
-7 8 -7 25 -1 15 6 26 6 30 -1 4 -5 11 -7 16 -4 15 10 90 11 95 3 3 -5 10 -5
16 -2 6 4 54 8 107 10 116 3 268 12 336 20 28 3 73 7 100 9 28 2 59 6 70 8 11
3 49 8 85 11 36 4 76 8 90 11 225 39 278 48 295 50 11 1 27 5 35 8 8 2 74 19
145 36 72 17 137 33 145 35 21 6 172 56 190 63 8 4 17 7 20 8 207 72 406 204
450 299 35 77 13 166 -59 234 -42 40 -115 92 -129 92 -6 0 -12 4 -14 8 -2 7
-78 40 -233 103 -19 7 -94 32 -105 34 -36 7 -83 19 -115 30 -22 7 -54 15 -72
18 -17 3 -36 8 -41 11 -6 3 -27 8 -48 11 -43 6 -79 13 -79 15 0 1 -9 3 -20 5
-28 5 -145 25 -175 30 -59 9 -116 18 -135 21 -11 1 -20 3 -20 4 0 1 -22 3 -50
6 -27 2 -63 7 -80 9 -33 6 -84 12 -155 19 -25 3 -74 8 -108 12 -35 4 -85 8
-110 9 -26 2 -47 4 -47 5 0 2 -50 5 -225 15 -69 4 -152 9 -185 12 -33 3 -842
8 -1798 10 l-1738 4 4 -2693z"/>
<path d="M10567 19194 c-1 -1 -108 -5 -237 -8 -228 -6 -307 -10 -475 -20 -137
-9 -228 -16 -375 -32 -25 -3 -65 -7 -90 -9 -25 -2 -72 -7 -105 -11 -33 -5 -70
-8 -82 -8 -13 -1 -23 -4 -23 -7 0 -4 -8 -6 -17 -6 -51 3 -439 -72 -543 -104
-36 -11 -74 -22 -86 -25 -11 -2 -51 -15 -90 -30 -38 -14 -77 -28 -86 -31 -10
-3 -18 -8 -18 -12 0 -4 -10 -7 -22 -8 -11 -1 -24 -6 -27 -11 -3 -5 -21 -17
-40 -27 -40 -20 -47 -25 -117 -89 -30 -27 -52 -51 -49 -54 2 -3 -4 -17 -14
-31 -19 -27 -47 -100 -43 -113 1 -5 -2 -8 -7 -8 -5 0 -12 -17 -16 -37 -5 -21
-10 -42 -11 -48 -7 -20 -53 -221 -58 -250 -3 -16 -8 -41 -11 -55 -9 -43 -14
-75 -20 -114 -2 -21 -7 -46 -9 -55 -3 -9 -7 -36 -10 -61 -3 -25 -7 -54 -10
-65 -2 -11 -7 -47 -10 -80 -8 -66 -13 -107 -21 -161 -3 -20 -8 -62 -11 -93 -3
-31 -7 -72 -9 -91 -8 -59 -17 -153 -20 -200 -2 -25 -4 -45 -5 -45 -1 0 -3 -27
-5 -60 -3 -33 -7 -87 -10 -120 -4 -33 -8 -82 -10 -110 -2 -27 -7 -88 -10 -135
-14 -181 -14 -173 -30 -475 -4 -60 -8 -140 -9 -178 -2 -37 -6 -70 -9 -73 -3
-4 -2 -14 3 -24 5 -10 7 -20 4 -23 -6 -6 -8 -42 -19 -337 -13 -375 -16 -493
-20 -858 -2 -211 -7 -386 -9 -390 -3 -5 -1 -14 3 -21 5 -7 5 -28 1 -47 -4 -19
-4 -34 0 -34 4 0 4 -16 0 -35 -4 -19 -4 -37 0 -40 5 -3 5 -18 0 -34 -4 -15 -4
-34 0 -42 5 -7 6 -17 3 -22 -3 -5 -5 -35 -4 -68 2 -67 2 -74 0 -146 -1 -28 1
-55 4 -60 3 -5 2 -15 -2 -22 -5 -7 -5 -28 -1 -47 4 -19 4 -34 0 -34 -4 0 -4
-16 0 -35 4 -19 5 -35 1 -35 -3 0 -6 -36 -6 -80 0 -44 3 -80 6 -80 4 0 3 -16
-1 -35 -4 -19 -4 -35 0 -35 4 0 4 -18 0 -40 -4 -22 -4 -40 0 -40 4 0 4 -15 0
-34 -4 -19 -4 -39 0 -46 4 -7 4 -27 0 -46 -4 -19 -4 -34 0 -34 4 0 4 -16 0
-35 -4 -19 -4 -37 0 -40 4 -3 4 -20 0 -39 -4 -19 -4 -40 0 -47 5 -7 5 -22 0
-34 -5 -12 -5 -28 0 -35 5 -7 5 -23 0 -34 -4 -12 -4 -30 0 -42 5 -11 5 -26 0
-33 -4 -7 -4 -28 0 -47 4 -19 4 -34 0 -34 -4 0 -4 -16 0 -35 4 -19 5 -35 1
-35 -3 0 -6 -36 -6 -80 0 -44 3 -80 6 -80 4 0 3 -16 -1 -35 -4 -19 -4 -35 0
-35 4 0 4 -18 0 -40 -4 -22 -4 -40 0 -40 4 0 4 -15 0 -34 -4 -19 -4 -39 0 -46
4 -7 4 -27 0 -46 -4 -19 -4 -34 0 -34 4 0 4 -16 0 -35 -4 -19 -4 -37 0 -40 4
-3 4 -20 0 -39 -4 -19 -4 -40 0 -47 5 -7 5 -22 0 -34 -5 -12 -5 -28 0 -35 5
-7 5 -23 0 -34 -4 -12 -4 -30 0 -42 5 -11 4 -27 0 -34 -4 -7 -6 -18 -4 -25 7
-16 10 -125 4 -125 -7 0 -4 -149 3 -156 3 -3 1 -19 -3 -35 -5 -16 -5 -31 0
-34 4 -3 4 -21 0 -40 -4 -19 -4 -37 0 -40 5 -3 5 -18 1 -33 -5 -15 -5 -37 -1
-48 5 -11 4 -27 0 -34 -5 -7 -5 -23 0 -35 5 -12 5 -28 0 -35 -4 -7 -4 -25 0
-41 5 -15 6 -30 3 -33 -7 -7 -7 -305 0 -312 2 -3 1 -21 -3 -40 -4 -18 -4 -34
0 -34 4 0 4 -16 0 -35 -4 -19 -4 -37 0 -40 4 -2 4 -23 0 -45 -4 -22 -4 -43 1
-45 4 -3 4 -19 -1 -35 -5 -16 -5 -32 0 -35 4 -3 4 -21 0 -40 -4 -19 -4 -37 0
-40 5 -3 5 -18 1 -33 -5 -15 -5 -37 -1 -48 5 -11 4 -27 0 -34 -5 -7 -5 -23 0
-35 5 -12 5 -28 0 -35 -4 -7 -4 -25 0 -41 5 -15 5 -30 2 -34 -8 -8 3747 0
3863 8 44 3 130 8 190 12 159 9 193 13 205 20 5 3 10 1 10 -5 0 -6 4 -9 8 -6
8 5 65 11 177 21 92 8 167 15 205 20 19 3 58 7 85 10 78 9 117 14 155 20 19 2
51 7 70 9 19 2 51 7 70 10 19 3 51 8 70 11 19 2 98 15 175 30 77 14 154 28
170 30 17 3 37 8 45 10 8 2 30 7 49 10 19 3 38 8 43 11 5 3 21 8 36 10 62 11
234 59 292 81 8 4 19 5 24 4 4 -1 13 2 20 7 6 5 29 15 51 22 22 7 65 24 95 38
30 14 60 26 66 27 19 4 118 70 157 104 20 18 43 45 50 60 18 36 15 105 -6 151
-17 39 -101 127 -129 136 -10 3 -18 9 -18 14 0 9 -156 88 -247 124 -35 13 -63
22 -63 19 0 -3 -7 0 -15 7 -8 7 -15 9 -15 5 0 -4 -6 -3 -12 3 -11 8 -67 24
-83 23 -2 0 -16 6 -31 14 -15 7 -32 11 -39 9 -7 -3 -16 -1 -19 5 -4 6 -13 8
-21 4 -8 -3 -15 -1 -15 4 0 5 -8 9 -17 9 -19 1 -33 4 -118 24 -27 6 -63 14
-80 16 -16 2 -41 6 -55 9 -68 16 -223 40 -315 50 -27 3 -63 7 -80 10 -46 6
-135 16 -185 20 -25 2 -74 7 -110 10 -36 3 -96 8 -135 10 -38 2 -110 7 -160
10 -49 4 -172 8 -273 10 -101 2 -186 6 -189 8 -3 3 -15 2 -27 -3 -13 -4 -29
-4 -36 0 -8 5 -21 5 -31 0 -9 -5 -19 -7 -21 -5 -8 9 -98 11 -98 3 0 -4 -11 -3
-24 2 -15 5 -27 5 -34 -2 -6 -6 -12 -6 -16 0 -4 7 -17 7 -35 2 -16 -4 -32 -6
-35 -3 -9 10 -51 10 -63 0 -7 -5 -13 -6 -13 -1 0 5 -71 10 -158 10 -242 3
-417 10 -430 18 -7 4 -12 2 -12 -4 0 -6 -4 -9 -9 -6 -5 4 -54 9 -108 12 -54 3
-114 7 -133 10 -19 2 -60 6 -90 9 -115 11 -156 16 -190 22 -19 3 -46 7 -60 8
-14 2 -25 4 -25 5 0 1 -14 3 -32 5 -18 2 -57 9 -87 15 -31 6 -57 11 -58 11 -2
0 -25 6 -52 14 -26 8 -52 12 -57 9 -5 -3 -9 0 -9 5 0 6 -7 11 -16 11 -25 0
-150 47 -234 88 -82 39 -177 108 -235 168 -82 86 -158 225 -186 339 -5 22 -12
49 -15 60 -3 11 -7 29 -9 40 -2 11 -6 34 -8 50 -13 73 -19 138 -23 250 -6 149
-7 169 -4 175 0 3 3 47 5 98 4 95 12 191 20 227 3 11 7 31 9 45 20 109 78 281
98 288 4 2 8 8 8 14 0 19 74 123 116 163 71 67 114 105 114 99 0 -3 15 6 33
19 63 48 279 140 379 163 10 2 27 6 38 9 11 3 30 7 43 10 12 2 36 8 52 11 17
4 37 8 45 9 8 1 29 5 45 8 80 18 310 45 422 51 23 1 45 5 49 9 4 3 15 2 25 -4
11 -5 19 -6 19 -2 0 4 28 9 63 9 281 6 445 12 453 17 6 3 15 3 21 -1 7 -4 29
-6 50 -4 36 3 45 3 76 1 6 0 26 0 42 0 17 1 37 1 45 0 8 0 89 2 180 5 177 6
244 10 477 30 12 1 25 5 29 9 4 3 15 2 25 -3 10 -6 20 -6 23 -2 2 4 22 9 44
10 22 2 50 5 63 8 13 2 43 7 65 10 23 2 52 7 65 9 27 5 85 14 128 20 17 2 35
6 40 10 6 3 26 6 46 7 19 1 35 4 35 7 0 4 14 8 31 9 17 1 66 12 109 23 42 11
86 21 96 23 10 3 31 9 47 15 15 6 27 9 27 6 0 -6 234 76 244 86 6 5 16 9 24 9
47 0 315 159 329 196 3 8 8 12 12 10 4 -3 20 16 36 41 23 37 29 57 28 102 0
68 -2 77 -32 124 -48 78 -119 134 -261 208 -31 16 -116 52 -150 64 -3 1 -12 4
-20 8 -30 12 -169 56 -192 61 -13 3 -59 14 -103 25 -44 11 -91 22 -105 25 -14
3 -35 7 -46 10 -12 2 -37 7 -55 10 -19 3 -45 8 -59 11 -13 2 -42 7 -65 10 -22
3 -49 9 -59 12 -11 3 -43 7 -70 9 -28 1 -51 3 -51 4 0 3 -127 18 -205 25 -25
2 -79 6 -120 9 -41 4 -106 9 -145 12 -84 6 -430 16 -465 14 -14 -1 -31 -1 -37
-1 -13 1 -81 1 -105 1 -7 -1 -30 1 -50 2 -21 2 -38 0 -38 -5 0 -4 -5 -5 -12
-1 -6 4 -79 8 -162 10 -188 3 -344 12 -357 19 -5 4 -9 1 -9 -5 0 -6 -5 -8 -12
-4 -6 4 -30 8 -52 10 -46 3 -178 14 -216 18 -14 2 -43 6 -65 9 -22 4 -58 9
-80 12 -23 3 -52 8 -65 11 -14 2 -38 7 -55 9 -16 3 -44 9 -62 14 -17 5 -34 7
-37 3 -3 -3 -6 0 -6 7 0 7 -4 10 -9 7 -9 -6 -134 27 -186 49 -16 7 -41 16 -55
20 -37 11 -162 74 -181 91 -8 8 -19 14 -23 14 -18 0 -147 117 -193 175 -27 34
-73 111 -73 122 0 7 -4 13 -9 13 -5 0 -12 12 -16 28 -3 15 -13 41 -20 57 -13
28 -35 102 -41 135 -1 8 -5 26 -8 40 -16 64 -28 188 -30 287 0 40 -3 73 -6 73
-3 0 -5 25 -5 55 0 30 2 55 5 55 3 0 5 35 6 78 1 85 11 213 19 252 3 14 8 38
10 54 2 15 7 36 10 46 3 10 7 27 10 37 14 70 74 204 125 277 49 73 182 195
203 188 4 -1 7 2 7 8 0 5 6 10 14 10 8 0 16 4 18 8 6 17 188 96 268 117 8 3
47 13 86 24 40 11 85 22 100 25 16 2 39 7 50 10 12 2 39 7 60 11 22 3 50 7 64
10 14 2 48 6 75 10 28 3 64 8 80 11 17 2 55 6 85 9 30 3 78 7 105 10 137 13
459 27 672 29 84 0 153 5 153 9 0 5 5 5 11 2 16 -11 69 -12 69 -2 0 4 5 5 12
1 16 -10 58 -12 58 -2 0 4 10 4 23 -1 12 -5 32 -5 45 0 12 5 22 5 22 1 0 -4
17 -6 38 -5 37 2 103 3 132 2 104 -3 536 18 735 37 28 2 68 6 90 8 22 2 67 7
100 11 33 4 74 9 90 10 63 7 134 18 191 29 12 2 45 7 75 11 30 4 57 9 60 11 4
2 27 6 50 9 24 3 51 8 59 10 8 2 29 7 45 10 17 2 41 7 55 10 14 4 39 9 55 12
17 3 38 9 48 14 9 5 17 8 17 5 0 -2 33 5 73 15 39 11 79 21 87 23 8 3 27 9 43
15 15 6 27 8 27 5 0 -4 6 -2 13 4 9 8 48 20 87 27 3 0 14 6 25 12 27 14 98 38
108 35 4 -1 7 2 7 8 0 5 5 10 10 10 11 0 86 36 145 70 200 114 247 253 123
365 -43 39 -85 68 -125 86 -18 7 -33 17 -33 21 0 5 -3 7 -7 6 -5 -1 -19 4 -33
9 -77 33 -187 73 -200 73 -9 0 -20 4 -26 9 -5 5 -22 12 -39 15 -37 6 -115 26
-135 33 -8 4 -21 5 -27 4 -7 -1 -13 3 -13 9 0 6 -3 9 -8 7 -4 -3 -48 3 -97 14
-50 10 -106 22 -125 25 -19 3 -42 7 -50 9 -8 3 -33 7 -55 10 -22 4 -51 8 -65
11 -14 3 -43 7 -65 10 -22 3 -47 7 -55 9 -8 3 -42 7 -75 10 -33 4 -69 9 -80
12 -11 4 -36 8 -55 9 -19 1 -35 3 -35 4 0 1 -18 3 -40 4 -22 2 -67 7 -100 10
-33 4 -78 9 -100 11 -22 2 -60 6 -85 9 -56 7 -152 15 -250 22 -41 3 -100 7
-130 9 -259 20 -735 36 -1108 39 -123 0 -224 0 -225 0z"/>
<path d="M18520 19197 c-3 -3 -36 -8 -75 -11 -38 -4 -81 -9 -95 -11 -14 -3
-43 -7 -65 -10 -56 -7 -88 -13 -183 -35 -46 -11 -88 -18 -92 -15 -5 3 -10 2
-12 -3 -1 -4 -48 -21 -103 -36 -55 -16 -105 -33 -111 -38 -6 -4 -14 -5 -17 -1
-4 3 -7 2 -7 -3 0 -5 -8 -10 -18 -11 -16 -1 -132 -50 -174 -73 -10 -6 -25 -10
-33 -10 -8 0 -15 -4 -15 -10 0 -5 -6 -10 -13 -10 -17 0 -230 -119 -239 -134
-4 -6 -8 -8 -8 -4 0 6 -172 -111 -223 -152 -107 -85 -250 -222 -347 -330 -48
-54 -172 -227 -215 -300 -21 -36 -46 -76 -54 -90 -26 -42 -80 -154 -81 -167 0
-7 -5 -13 -11 -13 -5 0 -8 -3 -6 -8 3 -4 -3 -24 -13 -45 -17 -34 -61 -157 -66
-182 -1 -5 -10 -39 -19 -75 -9 -36 -20 -83 -23 -105 -8 -55 -7 -283 1 -320 16
-64 39 -125 48 -125 5 0 9 -8 9 -19 0 -43 168 -181 221 -181 10 0 20 -4 23 -9
8 -12 135 -6 181 9 44 14 108 46 139 70 33 26 126 120 118 120 -4 0 -1 4 5 8
18 12 103 164 97 174 -3 4 -1 8 3 8 5 0 17 26 28 58 18 53 41 100 56 112 3 3
10 12 15 22 22 39 121 134 214 204 102 77 329 203 440 243 19 8 51 20 70 29
19 8 41 15 48 15 6 0 12 3 12 7 0 4 25 13 55 20 30 7 55 17 55 22 0 5 4 7 9 4
5 -3 28 1 50 9 23 8 52 16 64 17 12 2 27 6 32 10 6 3 46 13 90 22 96 19 122
25 155 31 14 3 34 7 45 9 22 4 103 14 180 22 28 3 96 7 152 9 57 2 107 6 113
10 5 3 10 3 10 -2 0 -4 14 -8 30 -8 17 0 30 4 30 8 0 5 5 5 11 2 5 -4 43 -9
82 -11 161 -8 219 -16 407 -56 62 -13 59 -13 80 -20 8 -4 58 -21 110 -38 248
-85 465 -236 609 -425 65 -86 132 -223 163 -330 19 -67 22 -104 22 -230 0 -82
-4 -166 -8 -185 -5 -19 -10 -42 -11 -50 -2 -8 -4 -17 -5 -20 -1 -3 -3 -9 -4
-15 -2 -11 -7 -24 -44 -115 -14 -36 -34 -78 -44 -95 -9 -16 -25 -43 -34 -60
-64 -115 -252 -307 -396 -406 -51 -35 -142 -88 -203 -119 -102 -53 -299 -135
-349 -146 -12 -3 -25 -6 -31 -7 -5 -2 -14 -5 -20 -9 -8 -5 -48 -15 -90 -24
-23 -4 -232 -66 -250 -74 -11 -4 -76 -29 -145 -56 -69 -26 -160 -64 -202 -85
-42 -20 -78 -35 -81 -33 -2 3 -10 -2 -17 -11 -7 -8 -17 -15 -22 -15 -12 0
-212 -121 -216 -132 -2 -4 -9 -8 -16 -8 -7 0 -21 -8 -32 -17 -10 -10 -36 -30
-56 -46 -39 -29 -149 -135 -183 -178 -30 -36 -81 -129 -90 -164 -5 -16 -10
-37 -12 -45 -12 -42 2 -115 32 -175 29 -56 100 -135 147 -163 16 -9 28 -20 28
-24 0 -4 6 -8 14 -8 8 0 16 -4 18 -8 4 -11 154 -86 203 -102 22 -7 45 -15 50
-19 6 -3 15 -7 20 -8 6 -1 51 -14 100 -27 107 -30 180 -45 295 -62 83 -11 154
-16 470 -30 151 -7 190 -10 210 -17 8 -2 42 -10 75 -16 33 -6 96 -22 139 -36
89 -28 266 -112 266 -126 0 -5 5 -9 11 -9 37 0 269 -231 269 -269 0 -5 4 -11
9 -13 14 -5 81 -137 106 -207 26 -75 51 -162 59 -206 3 -16 8 -41 11 -55 3
-14 8 -54 11 -90 3 -36 8 -76 11 -90 2 -14 4 -32 4 -40 -1 -8 -1 -37 -1 -65 1
-27 1 -54 1 -60 0 -97 -21 -326 -36 -395 -3 -14 -8 -41 -11 -60 -2 -19 -9 -48
-14 -65 -5 -16 -23 -75 -39 -131 -17 -56 -38 -119 -48 -140 -20 -47 -19 -44
-28 -71 -4 -13 -11 -23 -16 -23 -5 0 -9 -7 -9 -15 0 -32 -171 -295 -192 -295
-4 0 -8 -5 -8 -11 0 -19 -158 -166 -238 -222 -69 -48 -203 -131 -209 -128 -2
0 -24 -9 -50 -20 -88 -38 -267 -92 -290 -88 -4 1 -10 0 -13 -1 -82 -31 -407
-34 -595 -5 -58 9 -110 20 -125 25 -3 1 -9 3 -15 4 -35 6 -116 27 -165 44 -8
3 -19 6 -25 7 -15 4 -127 45 -150 55 -11 5 -60 27 -108 50 -49 22 -93 40 -98
40 -5 0 -9 5 -9 12 0 6 -3 8 -7 5 -3 -4 -11 -3 -17 2 -6 5 -33 21 -61 37 -82
45 -89 49 -99 57 -6 4 -40 26 -76 49 -78 49 -204 140 -208 150 -2 5 -10 8 -17
8 -7 0 -15 3 -17 8 -1 4 -46 43 -98 87 -52 44 -112 96 -134 115 -21 19 -46 42
-55 50 -21 19 -156 137 -195 170 -16 14 -34 30 -40 35 -6 6 -51 44 -101 85
-49 41 -91 78 -93 83 -2 4 -8 7 -12 7 -5 0 -20 10 -32 23 -13 12 -39 33 -57
47 -80 59 -107 80 -123 94 -10 9 -20 16 -23 16 -3 0 -28 16 -55 35 -27 19 -52
35 -55 35 -3 0 -23 11 -43 24 -87 55 -213 76 -247 42 -9 -9 -21 -16 -26 -16
-11 0 -57 -95 -65 -132 -20 -102 -37 -327 -36 -463 2 -119 31 -283 56 -314 8
-12 8 -13 -2 -7 -11 6 90 -203 110 -229 5 -5 36 -46 70 -90 88 -114 181 -204
339 -329 82 -64 379 -245 449 -272 8 -3 36 -17 63 -31 26 -13 47 -22 47 -18 0
3 12 -2 27 -12 14 -9 31 -18 37 -19 6 -1 31 -11 56 -22 52 -23 160 -65 175
-69 6 -1 47 -15 93 -31 45 -17 82 -28 82 -25 0 3 6 1 13 -4 14 -11 108 -39
120 -35 4 1 7 -2 7 -6 0 -4 8 -8 18 -9 24 -2 67 -12 97 -23 14 -5 25 -7 25 -4
0 4 6 1 13 -5 8 -6 17 -8 20 -5 3 3 12 2 19 -2 7 -5 18 -9 23 -10 34 -7 73
-15 95 -19 14 -3 36 -8 50 -11 14 -2 45 -9 70 -14 25 -5 56 -12 70 -14 14 -2
41 -7 60 -10 54 -9 89 -15 139 -22 25 -3 57 -8 71 -10 26 -5 50 -8 155 -18 33
-4 80 -9 105 -12 134 -16 681 -23 861 -10 124 8 173 13 324 32 17 2 53 6 80 9
28 2 50 5 50 5 0 2 39 10 70 14 17 3 30 5 30 6 0 1 11 3 25 5 33 4 91 14 112
21 9 3 25 6 35 9 90 18 308 122 361 172 7 7 17 13 21 13 5 0 22 13 38 29 17
15 35 30 40 32 23 9 177 164 253 254 92 112 225 324 302 485 58 119 129 290
121 290 -3 0 -1 6 5 13 8 9 54 143 66 192 2 6 6 17 9 25 8 22 58 221 62 250 2
14 6 35 8 46 3 12 8 37 11 55 3 19 8 45 11 59 7 36 14 88 20 145 3 28 9 79 12
115 10 91 9 479 0 573 -10 96 -14 119 -51 307 -2 8 -5 22 -8 30 -3 8 -16 53
-28 100 -13 47 -27 89 -31 95 -5 5 -9 15 -9 21 0 7 -16 48 -36 91 -21 43 -38
84 -40 91 -1 8 -8 21 -16 30 -13 17 -31 47 -54 91 -7 13 -17 27 -21 30 -5 3
-19 23 -32 44 -12 20 -27 37 -32 37 -5 0 -9 5 -9 11 0 6 -22 34 -49 62 -111
117 -150 163 -151 175 0 6 -4 12 -8 12 -11 0 -96 142 -125 210 -23 52 -53 158
-65 225 -8 46 -7 263 1 325 8 65 19 115 41 190 9 30 18 62 20 70 2 8 10 29 17
45 6 17 13 35 14 40 7 30 102 227 144 300 20 33 34 63 33 68 -1 4 3 7 8 7 6 0
10 5 10 12 0 6 11 26 25 44 14 18 25 35 25 38 0 2 18 32 40 65 22 33 40 62 40
65 0 2 15 30 33 63 18 32 50 99 70 148 21 50 42 99 47 110 5 11 12 31 16 45 4
14 9 30 11 35 19 61 63 242 68 285 4 30 9 69 11 85 5 38 5 300 0 340 -20 149
-50 281 -91 390 -33 88 -55 138 -120 265 -26 50 -139 221 -164 248 -12 12 -18
22 -14 22 4 0 3 4 -3 8 -6 4 -36 37 -67 73 -115 137 -257 268 -417 386 -36 26
-67 50 -70 53 -3 3 -53 36 -112 73 -144 90 -436 239 -483 247 -5 1 -21 8 -35
15 -24 13 -55 25 -75 31 -5 1 -27 9 -47 18 -21 9 -38 13 -38 9 0 -5 -4 -3 -8
4 -4 6 -20 13 -37 16 -16 3 -50 13 -75 22 -49 17 -227 64 -275 72 -16 3 -56
11 -87 18 -31 7 -59 11 -62 8 -2 -3 -10 -1 -17 3 -7 4 -25 9 -39 11 -36 4 -99
13 -140 18 -47 7 -604 17 -610 12z"/>
<path d="M27068 19195 c-2 -1 -75 -6 -163 -10 -88 -3 -187 -9 -220 -11 -33 -2
-98 -6 -145 -9 -122 -7 -257 -18 -365 -30 -22 -3 -67 -7 -100 -11 -93 -9 -127
-13 -172 -19 -24 -3 -62 -7 -85 -10 -95 -12 -114 -15 -148 -20 -42 -6 -213
-33 -255 -40 -25 -5 -268 -52 -300 -59 -17 -4 -130 -30 -135 -31 -91 -24 -273
-81 -305 -95 -11 -5 -42 -18 -70 -30 -94 -39 -105 -45 -105 -52 0 -5 -5 -8
-12 -8 -21 0 -116 -79 -138 -116 -27 -42 -33 -101 -17 -149 14 -40 96 -144
115 -145 6 0 12 -4 12 -9 0 -20 199 -130 330 -182 69 -27 255 -88 286 -93 13
-3 27 -7 32 -10 5 -3 19 -7 33 -10 21 -4 55 -11 149 -31 151 -31 152 -31 220
-40 30 -3 67 -8 83 -11 15 -2 39 -6 55 -8 27 -4 94 -11 201 -21 30 -3 113 -7
186 -10 72 -2 136 -5 141 -6 5 -1 11 -1 14 0 12 5 100 5 100 1 0 -3 14 -5 30
-5 17 0 30 4 30 8 0 5 5 5 11 2 16 -10 79 -12 79 -2 0 4 5 5 11 2 16 -11 69
-12 75 -3 3 5 10 5 17 1 6 -4 88 -8 182 -9 158 -3 470 -12 470 -14 0 0 43 -3
95 -5 137 -7 318 -21 390 -30 19 -2 55 -7 80 -10 223 -28 379 -71 393 -109 7
-18 -11 -81 -41 -146 -19 -41 -52 -117 -57 -130 -3 -8 -64 -139 -88 -190 -12
-25 -22 -47 -23 -50 0 -3 -17 -39 -36 -80 -20 -41 -59 -124 -88 -185 -29 -60
-74 -156 -101 -212 -27 -56 -49 -107 -49 -113 0 -5 -4 -10 -10 -10 -5 0 -10
-5 -10 -12 0 -6 -31 -76 -70 -155 -38 -79 -70 -146 -70 -149 0 -2 -11 -22 -25
-44 -14 -22 -23 -40 -21 -40 3 0 -21 -53 -53 -117 -32 -65 -132 -266 -222
-448 -90 -181 -164 -332 -164 -335 -1 -4 -38 -77 -226 -450 -24 -47 -47 -88
-52 -91 -5 -3 -8 -9 -7 -13 2 -11 -73 -160 -84 -168 -6 -4 -7 -8 -3 -8 4 0 -6
-25 -22 -55 -17 -30 -31 -57 -31 -60 0 -3 -22 -51 -49 -108 -61 -128 -95 -201
-96 -207 -2 -6 -20 -46 -69 -154 -20 -43 -36 -85 -36 -92 0 -8 -4 -14 -10 -14
-5 0 -10 -6 -10 -14 0 -7 -11 -38 -24 -67 -14 -30 -26 -61 -28 -69 -2 -8 -6
-18 -11 -21 -4 -3 -9 -14 -12 -25 -2 -10 -30 -84 -63 -164 -33 -80 -63 -156
-67 -170 -4 -14 -13 -38 -20 -55 -7 -16 -18 -46 -25 -65 -7 -19 -16 -44 -21
-55 -9 -22 -58 -162 -64 -185 -3 -8 -16 -49 -30 -90 -46 -133 -126 -394 -129
-421 -2 -15 -6 -32 -10 -38 -4 -6 -9 -21 -11 -32 -3 -12 -11 -45 -19 -73 -8
-28 -17 -63 -20 -78 -14 -67 -17 -79 -27 -105 -6 -16 -10 -29 -9 -31 1 -2 -7
-45 -15 -82 -1 -3 -7 -31 -14 -62 -7 -32 -14 -70 -16 -85 -2 -16 -4 -28 -5
-28 -3 0 -16 -81 -35 -215 -2 -14 -6 -43 -9 -65 -31 -202 -36 -543 -10 -718 4
-23 7 -50 7 -59 1 -10 4 -18 7 -18 3 0 6 -11 6 -24 4 -71 76 -247 135 -331 42
-60 118 -135 138 -135 5 0 11 -4 13 -8 5 -14 96 -52 158 -66 68 -16 185 -18
239 -4 49 12 162 70 168 85 3 7 10 13 15 13 24 0 191 212 180 228 -2 3 0 8 5
11 20 14 104 236 118 308 2 15 7 39 10 53 5 27 21 113 30 169 3 19 8 83 10
143 2 59 6 112 10 117 3 5 1 12 -5 16 -6 4 -7 11 -4 17 4 6 8 42 10 82 3 39
13 118 24 176 20 105 22 116 35 180 4 19 8 42 9 50 1 8 7 31 14 50 6 19 13 46
15 60 2 14 6 32 10 40 3 8 8 26 12 40 33 125 60 217 99 340 26 80 48 152 51
160 2 8 4 15 5 15 1 0 3 8 5 18 2 10 7 26 11 35 4 9 8 19 9 22 0 3 14 43 30
90 16 47 30 87 30 90 1 3 4 12 8 20 3 8 15 42 27 75 11 33 23 67 27 75 3 8 7
20 9 27 3 18 53 146 64 165 6 10 10 26 10 36 0 10 4 22 8 27 8 9 44 97 48 118
1 4 3 9 4 12 1 3 3 8 4 13 1 4 12 29 24 56 12 27 22 54 22 62 0 7 5 16 10 19
6 4 8 11 5 16 -4 5 -1 9 6 9 7 0 10 3 7 6 -6 5 11 50 50 134 9 19 17 40 18 46
1 6 16 42 33 81 17 39 31 76 31 82 0 6 4 11 8 11 5 0 9 6 9 14 0 8 7 29 15 47
9 19 30 68 48 109 17 41 40 93 50 115 10 22 35 81 56 130 20 50 44 98 52 108
8 9 12 17 8 17 -3 0 1 11 10 24 8 14 15 26 13 28 -3 4 50 119 157 343 26 55
47 103 46 108 -1 4 3 7 9 7 5 0 7 5 4 10 -3 6 -1 10 6 10 7 0 10 2 7 5 -3 3
63 142 146 308 142 282 167 335 229 477 14 30 43 94 66 143 22 48 41 94 41
102 0 8 4 15 9 15 5 0 12 10 16 23 6 20 41 102 101 234 13 28 24 54 24 57 0 3
13 33 29 68 48 101 222 516 223 528 0 3 6 16 14 30 20 36 84 202 84 217 0 7 5
13 10 13 6 0 10 7 10 15 0 14 37 112 76 202 8 17 14 34 14 37 0 4 7 23 17 44
19 43 17 39 28 76 4 16 14 41 21 55 8 14 14 31 14 37 0 5 12 39 26 75 14 35
27 71 29 80 2 8 10 32 19 52 8 20 13 37 10 37 -2 0 2 13 11 30 13 25 15 98 15
505 l0 476 -52 24 c-29 14 -59 25 -66 25 -7 0 -20 4 -30 9 -17 10 -190 55
-247 65 -16 3 -57 11 -90 17 -68 13 -83 15 -145 23 -25 4 -59 9 -76 12 -17 2
-53 7 -80 9 -27 3 -69 7 -94 10 -44 5 -125 12 -226 19 -28 1 -56 6 -62 10 -6
3 -13 2 -17 -4 -4 -6 -11 -7 -17 -4 -5 3 -42 8 -81 11 -81 5 -1084 13 -1089 8z"/>
</g>
</svg>
